<svg id="Layer_1" data-name="Layer 1" xmlns="http://www.w3.org/2000/svg" xmlns:xlink="http://www.w3.org/1999/xlink" viewBox="0 0 763.92 144.48"><defs><style>.cls-1,.cls-2,.cls-3,.cls-4,.cls-5,.cls-6,.cls-7,.cls-8{stroke-miterlimit:10;stroke-width:7px;}.cls-1{fill:url(#New_Gradient_Swatch_2);stroke:url(#New_Gradient_Swatch_2-2);}.cls-2{fill:url(#New_Gradient_Swatch_2-3);stroke:url(#New_Gradient_Swatch_2-4);}.cls-3{fill:url(#New_Gradient_Swatch_2-5);stroke:url(#New_Gradient_Swatch_2-6);}.cls-4{fill:url(#New_Gradient_Swatch_1);stroke:url(#New_Gradient_Swatch_1-2);}.cls-5{fill:url(#New_Gradient_Swatch_1-3);stroke:url(#New_Gradient_Swatch_1-4);}.cls-6{fill:url(#New_Gradient_Swatch_2-7);stroke:url(#New_Gradient_Swatch_2-8);}.cls-7{fill:url(#New_Gradient_Swatch_2-9);stroke:url(#New_Gradient_Swatch_2-10);}.cls-8{fill:url(#New_Gradient_Swatch_2-11);stroke:url(#New_Gradient_Swatch_2-12);}</style><linearGradient id="New_Gradient_Swatch_2" x1="24.15" y1="98.84" x2="24.15" y2="-34.52" gradientUnits="userSpaceOnUse"><stop offset="0" stop-color="#0e1626"/><stop offset="1" stop-color="#25314a"/></linearGradient><linearGradient id="New_Gradient_Swatch_2-2" x1="-31.72" y1="32.16" x2="80.02" y2="32.16" xlink:href="#New_Gradient_Swatch_2"/><linearGradient id="New_Gradient_Swatch_2-3" x1="271.16" y1="101.59" x2="271.16" y2="-31.78" xlink:href="#New_Gradient_Swatch_2"/><linearGradient id="New_Gradient_Swatch_2-4" x1="237.98" y1="34.9" x2="304.33" y2="34.9" xlink:href="#New_Gradient_Swatch_2"/><linearGradient id="New_Gradient_Swatch_2-5" x1="-91.24" y1="99.67" x2="-91.24" y2="-33.7" xlink:href="#New_Gradient_Swatch_2"/><linearGradient id="New_Gradient_Swatch_2-6" x1="-156.66" y1="32.99" x2="-25.81" y2="32.99" xlink:href="#New_Gradient_Swatch_2"/><linearGradient id="New_Gradient_Swatch_1" x1="-329.24" y1="30.79" x2="-260.87" y2="30.79" gradientUnits="userSpaceOnUse"><stop offset="0" stop-color="#7d1d25"/><stop offset="1" stop-color="#eb1d25"/></linearGradient><linearGradient id="New_Gradient_Swatch_1-2" x1="-332.74" y1="30.79" x2="-257.37" y2="30.79" xlink:href="#New_Gradient_Swatch_1"/><linearGradient id="New_Gradient_Swatch_1-3" x1="-232.71" y1="31.39" x2="-165.1" y2="31.39" xlink:href="#New_Gradient_Swatch_1"/><linearGradient id="New_Gradient_Swatch_1-4" x1="-236.21" y1="31.39" x2="-161.6" y2="31.39" xlink:href="#New_Gradient_Swatch_1"/><linearGradient id="New_Gradient_Swatch_2-7" x1="127.87" y1="101.59" x2="127.87" y2="-31.78" xlink:href="#New_Gradient_Swatch_2"/><linearGradient id="New_Gradient_Swatch_2-8" x1="98.82" y1="34.9" x2="156.93" y2="34.9" xlink:href="#New_Gradient_Swatch_2"/><linearGradient id="New_Gradient_Swatch_2-9" x1="201.57" y1="101.59" x2="201.57" y2="-31.78" xlink:href="#New_Gradient_Swatch_2"/><linearGradient id="New_Gradient_Swatch_2-10" x1="172.51" y1="34.9" x2="230.62" y2="34.9" xlink:href="#New_Gradient_Swatch_2"/><linearGradient id="New_Gradient_Swatch_2-11" x1="378.2" y1="101.59" x2="378.2" y2="-31.78" xlink:href="#New_Gradient_Swatch_2"/><linearGradient id="New_Gradient_Swatch_2-12" x1="325.22" y1="34.9" x2="431.18" y2="34.9" xlink:href="#New_Gradient_Swatch_2"/></defs><title>HDWALLET</title><path class="cls-1" d="M73.59,98.84a2.93,2.93,0,0,1-2.77-2l-42-120.36L-22.59,97.06a2.93,2.93,0,0,1-3.84,1.55A2.93,2.93,0,0,1-28,94.76L26.4-32.74a2.93,2.93,0,0,1,2.79-1.78,2.93,2.93,0,0,1,2.67,2L76.35,94.95A2.93,2.93,0,0,1,73.59,98.84Z" transform="translate(332.74 39.39)"/><path class="cls-2" d="M297.88,101.59H278.26a33.69,33.69,0,0,1-33.65-33.65,38.88,38.88,0,0,1,9.72-25.21A35.69,35.69,0,0,1,263.85,35a34,34,0,0,1-12.57-8.6,36.32,36.32,0,0,1-9.79-24.5,33.69,33.69,0,0,1,33.65-33.65h22.74a3,3,0,0,1,3,3,3,3,0,0,1-3,3H275.13A27.78,27.78,0,0,0,247.39,1.87c0,15.88,12.71,29.3,27.75,29.3h3.13a3,3,0,0,1,0,5.9c-15.88,0-27.75,16.29-27.75,30.86a27.78,27.78,0,0,0,27.75,27.75h19.61A3,3,0,1,1,297.88,101.59Z" transform="translate(332.74 39.39)"/><path class="cls-3" d="M-31.61-33.33a2.92,2.92,0,0,0-3.47,2.24c-1,4.67-24.42,113.75-25.23,117.76s-6.08,7.16-11.25,7.16-10.31-3.27-11.25-7.16c-0.26-1.29-2.51-11.77-5.37-25.09C-82.54,35.85-74.74.46-74.62-.09a2.94,2.94,0,0,0,.07-0.6A22.81,22.81,0,0,0-74-4.92,17.09,17.09,0,0,0-91-22,17.09,17.09,0,0,0-108.11-4.92,27.37,27.37,0,0,0-107.47,0a2.94,2.94,0,0,0,.17.53c1.32,6.14,8.1,37.59,13.13,61-2.93,13.32-5.22,23.81-5.49,25.1-0.94,3.89-6.08,7.16-11.25,7.16s-10.31-3.27-11.25-7.16S-146.39-26.71-147.39-31.39a2.92,2.92,0,0,0-3.46-2.24,2.92,2.92,0,0,0-2.24,3.46c0.25,1.15,24.66,115.19,25.23,118l0,0.09c1.54,6.56,9,11.7,16.94,11.7S-95.5,94.53-94,88l0-.09c0.13-.64,1.18-5.46,2.73-12.55,1.52,7.08,2.55,11.9,2.68,12.55l0,0.09c1.54,6.56,9,11.7,16.94,11.7S-56.16,94.53-54.62,88l0-.09C-54,85-29.62-28.71-29.37-29.86A2.92,2.92,0,0,0-31.61-33.33ZM-101.82-1.74A2.94,2.94,0,0,0-102-2.18a17.83,17.83,0,0,1-.32-2.74A11.25,11.25,0,0,1-91-16.16,11.25,11.25,0,0,1-79.8-4.92a22.11,22.11,0,0,1-.63,3.75,2.92,2.92,0,0,0-.08.69c-1.08,4.91-6,27.39-10.64,48.32C-96.07,25-101.41.15-101.82-1.74Z" transform="translate(332.74 39.39)"/><path class="cls-4" d="M-263.79-35a2.92,2.92,0,0,0-2.92,2.92V10.68A16.5,16.5,0,0,1-283.2,27.17a2.91,2.91,0,0,0-1,.17h-22.74a22.27,22.27,0,0,0-16.49,7.29V-33a2.92,2.92,0,0,0-2.92-2.92A2.92,2.92,0,0,0-329.24-33V94.55a2.92,2.92,0,0,0,2.92,2.92,2.92,2.92,0,0,0,2.92-2.92V49.66a16.5,16.5,0,0,1,16.49-16.49h24a2.91,2.91,0,0,0,1.11-.22,22.28,22.28,0,0,0,15.07-7.24V94.55a2.92,2.92,0,0,0,2.92,2.92,2.92,2.92,0,0,0,2.92-2.92V-32.05A2.92,2.92,0,0,0-263.79-35Z" transform="translate(332.74 39.39)"/><path class="cls-5" d="M-229.77,98.07a2.94,2.94,0,0,1-2.94-2.94,2.94,2.94,0,0,1,2.94-2.94c31.87,0,58.79-27.92,58.79-61,0-31.86-25.29-58.93-55.86-60.57V28.89a2.94,2.94,0,0,1-2.94,2.94,2.94,2.94,0,0,1-2.94-2.94V-32.36a2.94,2.94,0,0,1,2.94-2.94A63.13,63.13,0,0,1-184-15.38,67.89,67.89,0,0,1-170.18,5.79a66.3,66.3,0,0,1,5.07,25.44,66.65,66.65,0,0,1-5.07,25.49A68.47,68.47,0,0,1-184,78C-196.34,90.94-212.6,98.07-229.77,98.07Z" transform="translate(332.74 39.39)"/><path class="cls-6" d="M150.52,101.59h-26a22.22,22.22,0,0,1-22.18-21.36,3,3,0,0,1,0-.3V-28.88a2.9,2.9,0,0,1,2.9-2.9,2.9,2.9,0,0,1,2.9,2.9V79.39a16.41,16.41,0,0,0,16.39,16.39h26A2.9,2.9,0,1,1,150.52,101.59Z" transform="translate(332.74 39.39)"/><path class="cls-7" d="M224.22,101.59h-26A22.22,22.22,0,0,1,176,80.23a3,3,0,0,1,0-.3V-28.88a2.9,2.9,0,0,1,2.9-2.9,2.9,2.9,0,0,1,2.9,2.9V79.39a16.41,16.41,0,0,0,16.39,16.39h26A2.9,2.9,0,1,1,224.22,101.59Z" transform="translate(332.74 39.39)"/><path class="cls-8" d="M372.21,101.59a2.91,2.91,0,0,1-2.91-2.91V3a34.28,34.28,0,0,1,10.4-24.77,35.2,35.2,0,0,1,5.24-4.21h-53.3a2.91,2.91,0,0,1-2.91-2.91,2.91,2.91,0,0,1,2.91-2.91h93.13a2.91,2.91,0,0,1,2.91,2.91,2.91,2.91,0,0,1-2.91,2.91H404.72c-16.59,0-29.59,12.73-29.59,29V98.67A2.91,2.91,0,0,1,372.21,101.59Z" transform="translate(332.74 39.39)"/></svg>